:FULLY-SPECIFIED
:FORCE-ALL-JOINTS-BE-3DOF
:DEGREES
1631
root -15.0228 14.5932 19.3955 699.825 -71.4165 380.433
lfemur 12.7066 -11.6163 -13.3874
ltibia 27.2918 0 0
lfoot -21.6428 29.2606 0
ltoes -44.3657 0 0
rfemur -52.6515 -14.2584 7.01882
rtibia 66.005 0 0
rfoot -9.45828 10.4774 0
rtoes 6.17263 0 0
lowerback 12.9749 4.35581 -7.80434
upperback -0.259521 4.49635 -0.7815
thorax -8.12291 2.46025 2.64434
lowerneck 1.24256 -12.4128 -12.9593
upperneck 3.77715 -17.0693 10.0112
head 2.88723 -8.56822 4.38338
lclavicle -7.50149e-14 3.07702e-14 0
lhumerus -71.7362 -17.1956 104.196
lradius 104.239 0 0
lwrist 54.4737 0 0
lhand -11.8062 48.9467 0
lfingers 7.12502 0 0
lthumb 18.3166 79.6281 0
rclavicle -2.9915e-14 -1.2764e-14 0
rhumerus 46.6871 -3.5832 -54.8478
rradius 18.9472 0 0
rwrist 20.644 0 0
rhand -18.5596 -35.9006 0
rfingers 7.12502 0 0
rthumb 8.22331 -64.6423 0
1632
root -15.0357 14.5937 19.4003 700.229 -71.4713 380.015
lfemur 12.7827 -11.6307 -13.3821
ltibia 27.145 0 0
lfoot -21.6696 29.3477 0
ltoes -44.1708 0 0
rfemur -52.6588 -14.2448 7.0216
rtibia 66.0519 0 0
rfoot -9.48939 10.4906 0
rtoes 5.88718 0 0
lowerback 12.947 4.35756 -7.67367
upperback -0.267123 4.52505 -0.747422
thorax -8.11039 2.47018 2.60355
lowerneck 1.34969 -12.4207 -13.4406
upperneck 3.76361 -17.1379 10.6832
head 2.97473 -8.60319 4.64446
lclavicle -6.97523e-14 3.01132e-14 0
lhumerus -71.7818 -17.2171 104.233
lradius 104.211 0 0
lwrist 54.4981 0 0
lhand -12.6153 48.8043 0
lfingers 7.12502 0 0
lthumb 17.8939 79.4736 0
rclavicle -3.11474e-14 -1.25266e-14 0
rhumerus 46.6911 -3.60915 -54.8663
rradius 18.9439 0 0
rwrist 20.2854 0 0
rhand -18.5826 -35.9852 0
rfingers 7.12502 0 0
rthumb 8.25398 -64.4692 0
1633
root -15.0474 14.592 19.4064 700.371 -71.511 379.855
lfemur 12.8485 -11.6431 -13.3774
ltibia 27.0354 0 0
lfoot -21.6956 29.4324 0
ltoes -43.9719 0 0
rfemur -52.6801 -14.2055 7.02966
rtibia 66.0942 0 0
rfoot -9.52407 10.5054 0
rtoes 5.54105 0 0
lowerback 12.9396 4.34047 -7.66466
upperback -0.289148 4.50864 -0.697327
thorax -8.13177 2.46472 2.65511
lowerneck 1.27267 -12.5014 -13.1504
upperneck 3.84271 -17.2205 10.3426
head 2.96526 -8.64256 4.49177
lclavicle -6.3797e-14 2.93698e-14 0
lhumerus -71.8263 -17.238 104.269
lradius 104.177 0 0
lwrist 54.5164 0 0
lhand -13.315 48.6812 0
lfingers 7.12502 0 0
lthumb 17.4213 79.3009 0
rclavicle -3.24324e-14 -1.22791e-14 0
rhumerus 46.6975 -3.65033 -54.8956
rradius 18.9406 0 0
rwrist 19.8899 0 0
rhand -18.6067 -36.074 0
rfingers 7.12502 0 0
rthumb 8.28493 -64.2946 0
1634
root -15.0506 14.5889 19.4039 700.671 -71.4081 379.645
lfemur 12.9025 -11.6532 -13.3736
ltibia 26.9668 0 0
lfoot -21.7205 29.5136 0
ltoes -43.7709 0 0
rfemur -52.7142 -14.1424 7.0426
rtibia 66.1309 0 0
rfoot -9.56166 10.5215 0
rtoes 5.14359 0 0
lowerback 12.9721 4.29215 -7.71634
upperback -0.357169 4.43358 -0.67343
thorax -8.22223 2.43553 2.72051
lowerneck 1.21641 -12.6387 -12.6357
upperneck 3.7891 -17.3639 9.86461
head 2.88745 -8.71141 4.27119
lclavicle -5.72307e-14 2.85501e-14 0
lhumerus -71.8692 -17.2582 104.304
lradius 104.138 0 0
lwrist 54.5278 0 0
lhand -13.8885 48.5803 0
lfingers 7.12502 0 0
lthumb 16.9071 79.113 0
rclavicle -3.37437e-14 -1.20265e-14 0
rhumerus 46.706 -3.70505 -54.9345
rradius 18.9375 0 0
rwrist 19.4625 0 0
rhand -18.6315 -36.1654 0
rfingers 7.12502 0 0
rthumb 8.3156 -64.1215 0
1635
root -15.0394 14.5819 19.3733 701.836 -71.0269 378.867
lfemur 12.943 -11.6608 -13.3707
ltibia 26.943 0 0
lfoot -21.7441 29.5904 0
ltoes -43.5699 0 0
rfemur -52.76 -14.0574 7.06002
rtibia 66.161 0 0
rfoot -9.60152 10.5385 0
rtoes 4.70413 0 0
lowerback 13.0134 4.14849 -7.99811
upperback -0.573185 4.19939 -0.553875
thorax -8.4871 2.35171 3.04455
lowerneck 1.07494 -12.7199 -12.4319
upperneck 3.89707 -17.4492 9.62543
head 2.91267 -8.75042 4.15473
lclavicle -5.01346e-14 2.76643e-14 0
lhumerus -71.9099 -17.2773 104.337
lradius 104.095 0 0
lwrist 54.5318 0 0
lhand -14.3189 48.5045 0
lfingers 7.12502 0 0
lthumb 16.3596 78.913 0
rclavicle -3.5055e-14 -1.17738e-14 0
rhumerus 46.7163 -3.77162 -54.9819
rradius 18.9345 0 0
rwrist 19.0081 0 0
rhand -18.6565 -36.2575 0
rfingers 7.12502 0 0
rthumb 8.34543 -63.9532 0
1636
root -15.0486 14.5795 19.3803 702.032 -71.0473 378.534
lfemur 12.9685 -11.6656 -13.3689
ltibia 27.0639 0 0
lfoot -21.7661 29.6618 0
ltoes -43.371 0 0
rfemur -52.8166 -13.9526 7.0815
rtibia 66.1837 0 0
rfoot -9.64299 10.5562 0
rtoes 4.232 0 0
lowerback 13.1066 4.12539 -7.94549
upperback -0.545503 4.17422 -0.494175
thorax -8.50727 2.33857 3.08072
lowerneck 1.1114 -12.7678 -12.5938
upperneck 3.81195 -17.5315 9.91543
head 2.93074 -8.7902 4.2578
lclavicle -4.25904e-14 2.67226e-14 0
lhumerus -71.9479 -17.2951 104.368
lradius 104.049 0 0
lwrist 54.5235 0 0
lhand -14.5896 48.4569 0
lfingers 7.12502 0 0
lthumb 15.7872 78.7038 0
rclavicle -3.634e-14 -1.15263e-14 0
rhumerus 46.7282 -3.84834 -55.0365
rradius 18.9317 0 0
rwrist 18.5316 0 0
rhand -18.6813 -36.3489 0
rfingers 7.12502 0 0
rthumb 8.37386 -63.7928 0
1637
root -15.0756 14.5811 19.4191 701.765 -71.4537 378.489
lfemur 12.9773 -11.6673 -13.3683
ltibia 27.415 0 0
lfoot -21.7861 29.7269 0
ltoes -43.1761 0 0
rfemur -52.8829 -13.83 7.10664
rtibia 66.198 0 0
rfoot -9.68543 10.5743 0
rtoes 3.73654 0 0
lowerback 12.9497 4.169 -7.59602
upperback -0.379569 4.3092 -0.47605
thorax -8.22592 2.37784 2.89263
lowerneck 1.27395 -12.756 -12.8669
upperneck 3.59352 -17.5464 10.3317
head 2.90269 -8.80007 4.43121
lclavicle -3.46795e-14 2.5735e-14 0
lhumerus -71.9826 -17.3114 104.397
lradius 104 0 0
lwrist 54.4999 0 0
lhand -14.6835 48.4404 0
lfingers 7.12502 0 0
lthumb 15.1982 78.4885 0
rclavicle -3.75724e-14 -1.12889e-14 0
rhumerus 46.7414 -3.93352 -55.0971
rradius 18.9292 0 0
rwrist 18.038 0 0
rhand -18.7054 -36.4377 0
rfingers 7.12502 0 0
rthumb 8.40031 -63.6435 0
1638
root -15.0814 14.5808 19.4252 702.334 -71.4891 377.899
lfemur 12.907 -11.6892 -13.3649
ltibia 27.9784 0 0
lfoot -21.8039 29.7847 0
ltoes -42.9874 0 0
rfemur -52.9577 -13.6915 7.13503
rtibia 66.203 0 0
rfoot -9.7282 10.5926 0
rtoes 3.22707 0 0
lowerback 12.9438 4.16649 -7.45686
upperback -0.393185 4.33496 -0.401805
thorax -8.23499 2.38768 2.88887
lowerneck 1.32777 -12.8681 -13.008
upperneck 3.53575 -17.7115 10.5039
head 2.92392 -8.88282 4.49077
lclavicle -2.64835e-14 2.47119e-14 0
lhumerus -72.0134 -17.3259 104.422
lradius 103.95 0 0
lwrist 54.4624 0 0
lhand -14.6833 48.4202 0
lfingers 7.12502 0 0
lthumb 14.6008 78.2703 0
rclavicle -3.87259e-14 -1.10667e-14 0
rhumerus 46.7557 -4.02548 -55.1625
rradius 18.9268 0 0
rwrist 17.532 0 0
rhand -18.7284 -36.5223 0
rfingers 7.12502 0 0
rthumb 8.42424 -63.5084 0
1639
root -15.0868 14.5763 19.4314 702.606 -71.5483 377.63
lfemur 12.7025 -11.7528 -13.3551
ltibia 28.7365 0 0
lfoot -21.8191 29.8341 0
ltoes -42.807 0 0
rfemur -53.04 -13.5391 7.16627
rtibia 66.183 0 0
rfoot -9.77064 10.6107 0
rtoes 2.71294 0 0
lowerback 12.9107 4.14147 -7.47073
upperback -0.399566 4.30773 -0.345624
thorax -8.22569 2.37695 2.96438
lowerneck 1.31412 -13.0026 -12.5599
upperneck 3.3922 -17.8507 10.0578
head 2.81815 -8.95117 4.29621
lclavicle -1.80837e-14 2.36634e-14 0
lhumerus -72.0399 -17.3384 104.443
lradius 103.9 0 0
lwrist 54.4128 0 0
lhand -14.6829 48.3619 0
lfingers 7.12502 0 0
lthumb 14.0035 78.052 0
rclavicle -3.9774e-14 -1.08648e-14 0
rhumerus 46.7707 -4.12251 -55.2316
rradius 18.9247 0 0
rwrist 17.0188 0 0
rhand -18.7497 -36.6011 0
rfingers 7.12502 0 0
rthumb 8.44508 -63.3908 0
1640
root -15.0685 14.5687 19.4036 703.802 -71.1856 376.897
lfemur 12.3734 -11.8553 -13.3393
ltibia 29.6715 0 0
lfoot -21.8314 29.8743 0
ltoes -42.6368 0 0
rfemur -53.1287 -13.3748 7.19994
rtibia 66.1253 0 0
rfoot -9.81211 10.6284 0
rtoes 2.20347 0 0
lowerback 12.8956 3.9999 -7.73539
upperback -0.638067 4.08229 -0.253127
thorax -8.47912 2.29647 3.25134
lowerneck 1.45021 -13.0448 -12.7999
upperneck 3.25104 -17.9361 10.4045
head 2.81735 -8.99614 4.4342
lclavicle -9.56163e-15 2.25996e-14 0
lhumerus -72.0614 -17.3485 104.461
lradius 103.85 0 0
lwrist 54.3526 0 0
lhand -14.6822 48.2692 0
lfingers 7.12502 0 0
lthumb 13.4145 77.8367 0
rclavicle -4.06906e-14 -1.06882e-14 0
rhumerus 46.7863 -4.22293 -55.303
rradius 18.923 0 0
rwrist 16.503 0 0
rhand -18.7691 -36.6723 0
rfingers 7.12502 0 0
rthumb 8.46227 -63.2939 0
1641
root -15.069 14.564 19.4133 704.149 -71.2184 376.606
lfemur 11.9293 -11.9935 -13.318
ltibia 30.7659 0 0
lfoot -21.8406 29.9042 0
ltoes -42.4789 0 0
rfemur -53.2228 -13.2006 7.23565
rtibia 66.0328 0 0
rfoot -9.85197 10.6454 0
rtoes 1.70801 0 0
lowerback 12.8441 3.98106 -7.66079
upperback -0.665505 4.07509 -0.233699
thorax -8.4745 2.29144 3.234
lowerneck 1.47926 -13.1175 -12.8438
upperneck 3.15927 -18.0424 10.5794
head 2.81786 -9.0483 4.48605
lclavicle -9.98866e-16 2.15306e-14 0
lhumerus -72.0775 -17.3561 104.474
lradius 103.801 0 0
lwrist 54.2834 0 0
lhand -14.6812 48.1457 0
lfingers 7.12502 0 0
lthumb 12.8421 77.6275 0
rclavicle -4.14494e-14 -1.05421e-14 0
rhumerus 46.8021 -4.32503 -55.3757
rradius 18.9215 0 0
rwrist 15.9898 0 0
rhand -18.7859 -36.7344 0
rfingers 7.12502 0 0
rthumb 8.47524 -63.2207 0
1642
root -15.0673 14.5591 19.4228 704.507 -71.2905 376.3
lfemur 11.3798 -12.1646 -13.2917
ltibia 32.0018 0 0
lfoot -21.8463 29.9229 0
ltoes -42.3355 0 0
rfemur -53.3212 -13.0185 7.27299
rtibia 65.9089 0 0
rfoot -9.88956 10.6615 0
rtoes 1.23588 0 0
lowerback 12.805 3.95078 -7.62221
upperback -0.702901 4.04856 -0.181756
thorax -8.49081 2.28048 3.27479
lowerneck 1.54862 -13.1678 -12.9237
upperneck 3.08255 -18.1209 10.7007
head 2.81152 -9.08885 4.53207
lclavicle 7.52316e-15 2.04668e-14 0
lhumerus -72.0875 -17.3608 104.482
lradius 103.755 0 0
lwrist 54.207 0 0
lhand -14.6801 47.995 0
lfingers 7.12502 0 0
lthumb 12.2946 77.4275 0
rclavicle -4.20239e-14 -1.04314e-14 0
rhumerus 46.8179 -4.42714 -55.4483
rradius 18.9205 0 0
rwrist 15.4838 0 0
rhand -18.7998 -36.7856 0
rfingers 7.12502 0 0
rthumb 8.48343 -63.1744 0
